<svg width="256" height="256" viewBox="0 0 256 256" fill="none" xmlns="http://www.w3.org/2000/svg">
  <defs>
    <filter id="soft-shadow" x="18" y="34" width="220" height="190" filterUnits="userSpaceOnUse" color-interpolation-filters="sRGB">
      <feDropShadow dx="0" dy="10" stdDeviation="10" flood-color="#0F172A" flood-opacity="0.16"/>
    </filter>
  </defs>

  <g filter="url(#soft-shadow)">
    <path d="M128 56L135 96H121L128 56Z" fill="#0B0B0F"/>
    <path d="M52 140C69 145 81 141 92 131C97 100 121 79 151 79C180 79 204 100 209 131C220 141 232 145 249 140C238 152 226 159 214 161C208 177 196 190 179 198C176 182 181 169 190 158C177 163 164 166 151 167H105C92 166 79 163 66 158C75 169 80 182 77 198C60 190 48 177 42 161C30 159 18 152 7 140C24 145 36 141 47 131C52 100 76 79 105 79C114 79 122 81 128 84C134 81 142 79 151 79C121 79 97 100 92 131C81 141 69 145 52 140Z" fill="#0B0B0F"/>
    <path d="M87 129C92 118 101 111 108 111C107 122 110 132 117 140C105 140 95 137 87 129Z" fill="#FFFFFF"/>
    <path d="M169 129C164 118 155 111 148 111C149 122 146 132 139 140C151 140 161 137 169 129Z" fill="#FFFFFF"/>
    <path d="M99 154C109 162 121 166 128 166C135 166 147 162 157 154C154 173 143 186 128 186C113 186 102 173 99 154Z" fill="#FFFFFF"/>
    <path d="M109 161C115 168 121 171 128 171C135 171 141 168 147 161" stroke="#0B0B0F" stroke-width="6" stroke-linecap="round"/>
    <circle cx="116" cy="157" r="3.5" fill="#F9A8D4"/>
    <circle cx="140" cy="157" r="3.5" fill="#F9A8D4"/>
  </g>
</svg>
